<?xml version="1.0" standalone="no"?>
<!DOCTYPE svg PUBLIC "-//W3C//DTD SVG 1.1//EN"
"http://www.w3.org/Graphics/SVG/1.1/DTD/svg11.dtd">

<svg width="550" height="423" view_box="0 0 550 423"
xmlns="http://www.w3.org/2000/svg"
xmlns:link="http://www.w3.org/1999/xlink">\n\n<desc>Généré par Mocodo 2.3.5 le Tue, 14 Mar 2017 09:50:13</desc>

<rect id="frame" x="0" y="0" width="550" height="423" fill="#ffffff" stroke="none" stroke-width="0"/>

<!-- Association compose -->
<line x1="487" y1="161" x2="487" y2="60" stroke="#878787" stroke-width="2"/>
<text x="492.0" y="111" fill="#b2182b" font-family="monospace" font-size="12">0,N</text>
<line x1="369" y1="60" x2="487" y2="60" stroke="#878787" stroke-width="2"/>
<text x="409" y="77.0" fill="#b2182b" font-family="monospace" font-size="12">1,1</text>
<g id="association-compose">
	<path d="M 507 35 a 14 14 90 0 1 14 14 V 60 h -68 V 49 a 14 14 90 0 1 14 -14" fill="#bababa" stroke="#bababa" stroke-width="0"/>
	<path d="M 521 60.0 v 11 a 14 14 90 0 1 -14 14 H 467 a 14 14 90 0 1 -14 -14 V 60.0 H 68" fill="#e0e0e0" stroke="#e0e0e0" stroke-width="0"/>
	<rect x="453" y="35" width="68" height="50" fill="none" rx="14" stroke="#878787" stroke-width="2"/>
	<line x1="453" y1="60" x2="521" y2="60" stroke="#878787" stroke-width="1"/>
	<text x="460" y="52.7" fill="#000000" font-family="monospace" font-size="12">compose</text>
</g>

<!-- Association user2 -->
<line x1="257" y1="161" x2="369" y2="161" stroke="#878787" stroke-width="2"/>
<text x="296" y="153.0" fill="#b2182b" font-family="monospace" font-size="12">0,N</text>
<line x1="369" y1="262" x2="369" y2="161" stroke="#878787" stroke-width="2"/>
<text x="374.0" y="237" fill="#b2182b" font-family="monospace" font-size="12">1,1</text>
<g id="association-user2">
	<path d="M 376 136 a 14 14 90 0 1 14 14 V 161 h -42 V 150 a 14 14 90 0 1 14 -14" fill="#bababa" stroke="#bababa" stroke-width="0"/>
	<path d="M 390 161.0 v 11 a 14 14 90 0 1 -14 14 H 362 a 14 14 90 0 1 -14 -14 V 161.0 H 42" fill="#e0e0e0" stroke="#e0e0e0" stroke-width="0"/>
	<rect x="348" y="136" width="42" height="50" fill="none" rx="14" stroke="#878787" stroke-width="2"/>
	<line x1="348" y1="161" x2="390" y2="161" stroke="#878787" stroke-width="1"/>
	<text x="355" y="153.7" fill="#000000" font-family="monospace" font-size="12">user</text>
</g>

<!-- Association belongs to -->
<line x1="257" y1="161" x2="154" y2="262" stroke="#878787" stroke-width="2"/>
<text x="196" y="193.312772261" fill="#b2182b" font-family="monospace" font-size="12">0,N</text>
<line x1="54" y1="363" x2="154" y2="262" stroke="#878787" stroke-width="2"/>
<text x="104" y="327.528750151" fill="#b2182b" font-family="monospace" font-size="12">0,N</text>
<g id="association-belongs to">
	<path d="M 179 237 a 14 14 90 0 1 14 14 V 262 h -78 V 251 a 14 14 90 0 1 14 -14" fill="#bababa" stroke="#bababa" stroke-width="0"/>
	<path d="M 193 262.0 v 11 a 14 14 90 0 1 -14 14 H 129 a 14 14 90 0 1 -14 -14 V 262.0 H 78" fill="#e0e0e0" stroke="#e0e0e0" stroke-width="0"/>
	<rect x="115" y="237" width="78" height="50" fill="none" rx="14" stroke="#878787" stroke-width="2"/>
	<line x1="115" y1="262" x2="193" y2="262" stroke="#878787" stroke-width="1"/>
	<text x="122" y="254.7" fill="#000000" font-family="monospace" font-size="12">belongs to</text>
</g>

<!-- Association user1 -->
<line x1="257" y1="161" x2="257" y2="262" stroke="#878787" stroke-width="2"/>
<text x="262.0" y="229" fill="#b2182b" font-family="monospace" font-size="12">0,N</text>
<line x1="369" y1="262" x2="257" y2="262" stroke="#878787" stroke-width="2"/>
<text x="291" y="279.0" fill="#b2182b" font-family="monospace" font-size="12">1,1</text>
<g id="association-user1">
	<path d="M 264 237 a 14 14 90 0 1 14 14 V 262 h -42 V 251 a 14 14 90 0 1 14 -14" fill="#bababa" stroke="#bababa" stroke-width="0"/>
	<path d="M 278 262.0 v 11 a 14 14 90 0 1 -14 14 H 250 a 14 14 90 0 1 -14 -14 V 262.0 H 42" fill="#e0e0e0" stroke="#e0e0e0" stroke-width="0"/>
	<rect x="236" y="237" width="42" height="50" fill="none" rx="14" stroke="#878787" stroke-width="2"/>
	<line x1="236" y1="262" x2="278" y2="262" stroke="#878787" stroke-width="1"/>
	<text x="243" y="254.7" fill="#000000" font-family="monospace" font-size="12">user</text>
</g>

<!-- Association is a -->
<line x1="487" y1="161" x2="487" y2="262" stroke="#878787" stroke-width="2"/>
<text x="492.0" y="220" fill="#b2182b" font-family="monospace" font-size="12">     </text>
<path d="M 487.0 203.0 L 493.0 215.0 L 487.0 211.0 L 481.0 215.0 Z" fill="#878787" stroke-width="0"/>
<line x1="369" y1="262" x2="487" y2="262" stroke="#878787" stroke-width="2"/>
<text x="426" y="279.0" fill="#b2182b" font-family="monospace" font-size="12">     </text>
<line x1="487" y1="363" x2="487" y2="262" stroke="#878787" stroke-width="2"/>
<text x="492.0" y="338" fill="#b2182b" font-family="monospace" font-size="12">     </text>
<line x1="257" y1="363" x2="487" y2="262" stroke="#878787" stroke-width="2"/>
<text x="272.152652417" y="338" fill="#b2182b" font-family="monospace" font-size="12">     </text>
<g id="association-is a">
	<path d="M 491 237 a 14 14 90 0 1 14 14 V 262 h -36 V 251 a 14 14 90 0 1 14 -14" fill="#bababa" stroke="#bababa" stroke-width="0"/>
	<path d="M 505 262.0 v 11 a 14 14 90 0 1 -14 14 H 483 a 14 14 90 0 1 -14 -14 V 262.0 H 36" fill="#e0e0e0" stroke="#e0e0e0" stroke-width="0"/>
	<rect x="469" y="237" width="36" height="50" fill="none" rx="14" stroke="#878787" stroke-width="2"/>
	<line x1="469" y1="262" x2="505" y2="262" stroke="#878787" stroke-width="1"/>
	<text x="476" y="254.7" fill="#000000" font-family="monospace" font-size="12">is a</text>
</g>

<!-- Association inherit -->
<path d="M54 161 C 96.6666666667 177.333333333 96.6666666667 211.0 54 262" fill="none" stroke="#878787" stroke-width="2"/>
<text x="57.0" y="203" fill="#b2182b" font-family="monospace" font-size="12">0,N</text>
<path d="M 72.3670306206 237.000246838 L 73.582555588 223.639015642 L 76.5783055886 230.198396858 L 83.7853305573 229.955928095 Z" fill="#878787" stroke-width="0"/>
<path d="M54 161 C 11.3333333333 177.333333333 11.3333333333 211.0 54 262" fill="none" stroke="#878787" stroke-width="2"/>
<text x="29.0" y="203" fill="#b2182b" font-family="monospace" font-size="12">0,N</text>
<path d="M 31.9979596138 174.334193066 L 27.7896826479 187.073518204 L 26.3563918618 180.006292615 L 19.2815333237 178.611166576 Z" fill="#878787" stroke-width="0"/>
<g id="association-inherit">
	<path d="M 67 237 a 14 14 90 0 1 14 14 V 262 h -54 V 251 a 14 14 90 0 1 14 -14" fill="#bababa" stroke="#bababa" stroke-width="0"/>
	<path d="M 81 262.0 v 11 a 14 14 90 0 1 -14 14 H 41 a 14 14 90 0 1 -14 -14 V 262.0 H 54" fill="#e0e0e0" stroke="#e0e0e0" stroke-width="0"/>
	<rect x="27" y="237" width="54" height="50" fill="none" rx="14" stroke="#878787" stroke-width="2"/>
	<line x1="27" y1="262" x2="81" y2="262" stroke="#878787" stroke-width="1"/>
	<text x="34" y="254.7" fill="#000000" font-family="monospace" font-size="12">inherit</text>
</g>

<!-- Association write -->
<line x1="257" y1="161" x2="257" y2="60" stroke="#878787" stroke-width="2"/>
<text x="262.0" y="102" fill="#b2182b" font-family="monospace" font-size="12">0,N</text>
<line x1="369" y1="60" x2="257" y2="60" stroke="#878787" stroke-width="2"/>
<text x="308" y="77.0" fill="#b2182b" font-family="monospace" font-size="12">1,1</text>
<line x1="308" y1="79.0" x2="329" y2="79.0" stroke="#b2182b" stroke-width="1"/>
<g id="association-write">
	<path d="M 266 35 a 14 14 90 0 1 14 14 V 60 h -46 V 49 a 14 14 90 0 1 14 -14" fill="#bababa" stroke="#bababa" stroke-width="0"/>
	<path d="M 280 60.0 v 11 a 14 14 90 0 1 -14 14 H 248 a 14 14 90 0 1 -14 -14 V 60.0 H 46" fill="#e0e0e0" stroke="#e0e0e0" stroke-width="0"/>
	<rect x="234" y="35" width="46" height="50" fill="none" rx="14" stroke="#878787" stroke-width="2"/>
	<line x1="234" y1="60" x2="280" y2="60" stroke="#878787" stroke-width="1"/>
	<text x="241" y="52.7" fill="#000000" font-family="monospace" font-size="12">write</text>
	<text x="241" y="77.8" fill="#000000" font-family="monospace" font-size="12">date</text>
</g>

<!-- Association allow -->
<line x1="54" y1="161" x2="54" y2="60" stroke="#878787" stroke-width="2"/>
<text x="59.0" y="128" fill="#b2182b" font-family="monospace" font-size="12">0,N</text>
<line x1="154" y1="60" x2="54" y2="60" stroke="#878787" stroke-width="2"/>
<text x="97" y="77.0" fill="#b2182b" font-family="monospace" font-size="12">0,N</text>
<g id="association-allow">
	<path d="M 63 35 a 14 14 90 0 1 14 14 V 60 h -46 V 49 a 14 14 90 0 1 14 -14" fill="#bababa" stroke="#bababa" stroke-width="0"/>
	<path d="M 77 60.0 v 11 a 14 14 90 0 1 -14 14 H 45 a 14 14 90 0 1 -14 -14 V 60.0 H 46" fill="#e0e0e0" stroke="#e0e0e0" stroke-width="0"/>
	<rect x="31" y="35" width="46" height="50" fill="none" rx="14" stroke="#878787" stroke-width="2"/>
	<line x1="31" y1="60" x2="77" y2="60" stroke="#878787" stroke-width="1"/>
	<text x="38" y="52.7" fill="#000000" font-family="monospace" font-size="12">allow</text>
</g>

<!-- Association owns -->
<line x1="54" y1="363" x2="154" y2="363" stroke="#878787" stroke-width="2"/>
<text x="104" y="380.0" fill="#b2182b" font-family="monospace" font-size="12">0,N</text>
<line x1="257" y1="363" x2="154" y2="363" stroke="#878787" stroke-width="2"/>
<text x="183" y="380.0" fill="#b2182b" font-family="monospace" font-size="12">1,1</text>
<g id="association-owns">
	<path d="M 163 338 a 14 14 90 0 1 14 14 V 363 h -46 V 352 a 14 14 90 0 1 14 -14" fill="#bababa" stroke="#bababa" stroke-width="0"/>
	<path d="M 177 363.0 v 11 a 14 14 90 0 1 -14 14 H 145 a 14 14 90 0 1 -14 -14 V 363.0 H 46" fill="#e0e0e0" stroke="#e0e0e0" stroke-width="0"/>
	<rect x="131" y="338" width="46" height="50" fill="none" rx="14" stroke="#878787" stroke-width="2"/>
	<line x1="131" y1="363" x2="177" y2="363" stroke="#878787" stroke-width="1"/>
	<text x="138" y="355.7" fill="#000000" font-family="monospace" font-size="12">owns</text>
</g>

<!-- Association is inside -->
<line x1="257" y1="161" x2="369" y2="363" stroke="#878787" stroke-width="2"/>
<text x="262.592957013" y="229" fill="#b2182b" font-family="monospace" font-size="12">0,N</text>
<line x1="487" y1="363" x2="369" y2="363" stroke="#878787" stroke-width="2"/>
<text x="406" y="380.0" fill="#b2182b" font-family="monospace" font-size="12">0,N</text>
<g id="association-is inside">
	<path d="M 387 338 a 14 14 90 0 1 14 14 V 363 h -64 V 352 a 14 14 90 0 1 14 -14" fill="#bababa" stroke="#bababa" stroke-width="0"/>
	<path d="M 401 363.0 v 11 a 14 14 90 0 1 -14 14 H 351 a 14 14 90 0 1 -14 -14 V 363.0 H 64" fill="#e0e0e0" stroke="#e0e0e0" stroke-width="0"/>
	<rect x="337" y="338" width="64" height="50" fill="none" rx="14" stroke="#878787" stroke-width="2"/>
	<line x1="337" y1="363" x2="401" y2="363" stroke="#878787" stroke-width="1"/>
	<text x="344" y="355.7" fill="#000000" font-family="monospace" font-size="12">is inside</text>
</g>

<!-- Association possess -->
<line x1="257" y1="161" x2="154" y2="161" stroke="#878787" stroke-width="2"/>
<text x="197" y="153.0" fill="#b2182b" font-family="monospace" font-size="12">1,1</text>
<line x1="54" y1="161" x2="154" y2="161" stroke="#878787" stroke-width="2"/>
<text x="81" y="178.0" fill="#b2182b" font-family="monospace" font-size="12">0,N</text>
<g id="association-possess">
	<path d="M 171 136 a 14 14 90 0 1 14 14 V 161 h -62 V 150 a 14 14 90 0 1 14 -14" fill="#bababa" stroke="#bababa" stroke-width="0"/>
	<path d="M 185 161.0 v 11 a 14 14 90 0 1 -14 14 H 137 a 14 14 90 0 1 -14 -14 V 161.0 H 62" fill="#e0e0e0" stroke="#e0e0e0" stroke-width="0"/>
	<rect x="123" y="136" width="62" height="50" fill="none" rx="14" stroke="#878787" stroke-width="2"/>
	<line x1="123" y1="161" x2="185" y2="161" stroke="#878787" stroke-width="1"/>
	<text x="130" y="153.7" fill="#000000" font-family="monospace" font-size="12">possess</text>
</g>

<!-- Entity GROUP -->
<g id="entity-GROUP">
	<g id="frame-GROUP">
		<rect x="9" y="312" width="90" height="25" fill="#f4a582" stroke="#f4a582" stroke-width="0"/>
		<rect x="9" y="337.0" width="90" height="77" fill="#fddbc7" stroke="#fddbc7" stroke-width="0"/>
		<rect x="9" y="312" width="90" height="102" fill="none" stroke="#d6604d" stroke-width="2"/>
		<line x1="9" y1="337" x2="99" y2="337" stroke="#d6604d" stroke-width="1"/>
	</g>
	<text x="32" y="329.7" fill="#000000" font-family="monospace" font-size="12">GROUP</text>
	<text x="14" y="354.7" fill="#000000" font-family="monospace" font-size="12">name</text>
	<line x1="14" y1="357" x2="49" y2="357" stroke="#000000" stroke-width="1"/>
	<text x="14" y="371.8" fill="#000000" font-family="monospace" font-size="12">creation date</text>
	<text x="14" y="388.8" fill="#000000" font-family="monospace" font-size="12">icon</text>
	<text x="14" y="405.8" fill="#000000" font-family="monospace" font-size="12">metadata</text>
</g>

<!-- Entity GENERAL_CHAT -->
<g id="entity-GENERAL_CHAT">
	<g id="frame-GENERAL_CHAT">
		<rect x="433" y="346" width="108" height="25" fill="#f4a582" stroke="#f4a582" stroke-width="0"/>
		<rect x="433" y="371.0" width="108" height="9" fill="#fddbc7" stroke="#fddbc7" stroke-width="0"/>
		<rect x="433" y="346" width="108" height="34" fill="none" stroke="#d6604d" stroke-width="2"/>
		<line x1="433" y1="371" x2="541" y2="371" stroke="#d6604d" stroke-width="1"/>
	</g>
	<text x="438" y="363.8" fill="#000000" font-family="monospace" font-size="12">GENERAL_CHAT</text>
</g>

<!-- Entity GROUP_CHAT -->
<g id="entity-GROUP_CHAT">
	<g id="frame-GROUP_CHAT">
		<rect x="209" y="346" width="96" height="25" fill="#f4a582" stroke="#f4a582" stroke-width="0"/>
		<rect x="209" y="371.0" width="96" height="9" fill="#fddbc7" stroke="#fddbc7" stroke-width="0"/>
		<rect x="209" y="346" width="96" height="34" fill="none" stroke="#d6604d" stroke-width="2"/>
		<line x1="209" y1="371" x2="305" y2="371" stroke="#d6604d" stroke-width="1"/>
	</g>
	<text x="214" y="363.8" fill="#000000" font-family="monospace" font-size="12">GROUP_CHAT</text>
</g>

<!-- Entity PRIVATE_CHAT -->
<g id="entity-PRIVATE_CHAT">
	<g id="frame-PRIVATE_CHAT">
		<rect x="317" y="245" width="104" height="25" fill="#f4a582" stroke="#f4a582" stroke-width="0"/>
		<rect x="317" y="270.0" width="104" height="9" fill="#fddbc7" stroke="#fddbc7" stroke-width="0"/>
		<rect x="317" y="245" width="104" height="34" fill="none" stroke="#d6604d" stroke-width="2"/>
		<line x1="317" y1="270" x2="421" y2="270" stroke="#d6604d" stroke-width="1"/>
	</g>
	<text x="322" y="262.8" fill="#000000" font-family="monospace" font-size="12">PRIVATE_CHAT</text>
</g>

<!-- Entity ROLE -->
<g id="entity-ROLE">
	<g id="frame-ROLE">
		<rect x="32" y="136" width="44" height="25" fill="#f4a582" stroke="#f4a582" stroke-width="0"/>
		<rect x="32" y="161.0" width="44" height="25" fill="#fddbc7" stroke="#fddbc7" stroke-width="0"/>
		<rect x="32" y="136" width="44" height="50" fill="none" stroke="#d6604d" stroke-width="2"/>
		<line x1="32" y1="161" x2="76" y2="161" stroke="#d6604d" stroke-width="1"/>
	</g>
	<text x="37" y="153.7" fill="#000000" font-family="monospace" font-size="12">ROLE</text>
	<text x="37" y="178.8" fill="#000000" font-family="monospace" font-size="12">title</text>
	<line x1="37" y1="181" x2="61" y2="181" stroke="#000000" stroke-width="1"/>
</g>

<!-- Entity USER -->
<g id="entity-USER">
	<g id="frame-USER">
		<rect x="223" y="110" width="68" height="25" fill="#f4a582" stroke="#f4a582" stroke-width="0"/>
		<rect x="223" y="135.0" width="68" height="77" fill="#fddbc7" stroke="#fddbc7" stroke-width="0"/>
		<rect x="223" y="110" width="68" height="102" fill="none" stroke="#d6604d" stroke-width="2"/>
		<line x1="223" y1="135" x2="291" y2="135" stroke="#d6604d" stroke-width="1"/>
	</g>
	<text x="240" y="127.7" fill="#000000" font-family="monospace" font-size="12">USER</text>
	<text x="228" y="152.7" fill="#000000" font-family="monospace" font-size="12">login</text>
	<line x1="228" y1="155" x2="258" y2="155" stroke="#000000" stroke-width="1"/>
	<text x="228" y="169.8" fill="#000000" font-family="monospace" font-size="12">password</text>
	<text x="228" y="186.8" fill="#000000" font-family="monospace" font-size="12">email</text>
	<text x="228" y="203.8" fill="#000000" font-family="monospace" font-size="12">metadata</text>
</g>

<!-- Entity CHAT -->
<g id="entity-CHAT">
	<g id="frame-CHAT">
		<rect x="453" y="119" width="68" height="25" fill="#f4a582" stroke="#f4a582" stroke-width="0"/>
		<rect x="453" y="144.0" width="68" height="59" fill="#fddbc7" stroke="#fddbc7" stroke-width="0"/>
		<rect x="453" y="119" width="68" height="84" fill="none" stroke="#d6604d" stroke-width="2"/>
		<line x1="453" y1="144" x2="521" y2="144" stroke="#d6604d" stroke-width="1"/>
	</g>
	<text x="470" y="136.7" fill="#000000" font-family="monospace" font-size="12">CHAT</text>
	<text x="458" y="161.8" fill="#000000" font-family="monospace" font-size="12">name</text>
	<line x1="458" y1="164" x2="493" y2="164" stroke="#000000" stroke-width="1"/>
	<text x="458" y="178.8" fill="#000000" font-family="monospace" font-size="12">icon</text>
	<text x="458" y="195.8" fill="#000000" font-family="monospace" font-size="12">metadata</text>
</g>

<!-- Entity ACTION -->
<g id="entity-ACTION">
	<g id="frame-ACTION">
		<rect x="124" y="35" width="60" height="25" fill="#f4a582" stroke="#f4a582" stroke-width="0"/>
		<rect x="124" y="60.0" width="60" height="25" fill="#fddbc7" stroke="#fddbc7" stroke-width="0"/>
		<rect x="124" y="35" width="60" height="50" fill="none" stroke="#d6604d" stroke-width="2"/>
		<line x1="124" y1="60" x2="184" y2="60" stroke="#d6604d" stroke-width="1"/>
	</g>
	<text x="129" y="52.7" fill="#000000" font-family="monospace" font-size="12">ACTION</text>
	<text x="129" y="77.8" fill="#000000" font-family="monospace" font-size="12">name</text>
	<line x1="129" y1="80" x2="164" y2="80" stroke="#000000" stroke-width="1"/>
</g>

<!-- Entity MESSAGE -->
<g id="entity-MESSAGE">
	<g id="frame-MESSAGE">
		<rect x="334" y="9" width="70" height="25" fill="#f4a582" stroke="#f4a582" stroke-width="0"/>
		<rect x="334" y="34.0" width="70" height="77" fill="#fddbc7" stroke="#fddbc7" stroke-width="0"/>
		<rect x="334" y="9" width="70" height="102" fill="none" stroke="#d6604d" stroke-width="2"/>
		<line x1="334" y1="34" x2="404" y2="34" stroke="#d6604d" stroke-width="1"/>
	</g>
	<text x="339" y="26.7" fill="#000000" font-family="monospace" font-size="12">MESSAGE</text>
	<text x="339" y="51.7" fill="#000000" font-family="monospace" font-size="12">uid</text>
	<line x1="339" y1="54" x2="358" y2="54" style="fill:none;stroke:#000000;stroke-width:1;stroke-dasharray:4;"/>
	<text x="339" y="68.8" fill="#000000" font-family="monospace" font-size="12">content</text>
	<text x="339" y="85.8" fill="#000000" font-family="monospace" font-size="12">type</text>
	<text x="339" y="102.8" fill="#000000" font-family="monospace" font-size="12">metadata</text>
</g>
</svg>
